<svg xmlns="http://www.w3.org/2000/svg" width="1024" height="1024" viewBox="0 0 1024 1024" role="img" aria-label="HeroHealth asset">


<defs>
  <linearGradient id="shieldBlue" x1="0" x2="0" y1="0" y2="1">
    <stop offset="0%" stop-color="#5DD2FF"/>
    <stop offset="100%" stop-color="#2D8CFF"/>
  </linearGradient>
  <linearGradient id="shieldGreen" x1="0" x2="0" y1="0" y2="1">
    <stop offset="0%" stop-color="#A9E34B"/>
    <stop offset="100%" stop-color="#62B93E"/>
  </linearGradient>
  <linearGradient id="shieldOrange" x1="0" x2="0" y1="0" y2="1">
    <stop offset="0%" stop-color="#FFC342"/>
    <stop offset="100%" stop-color="#FF7D1A"/>
  </linearGradient>
  <filter id="softGlow" x="-20%" y="-20%" width="140%" height="140%">
    <feDropShadow dx="0" dy="6" stdDeviation="10" flood-color="#8ED8FF" flood-opacity="0.35"/>
  </filter>
</defs>

<g filter="url(#softGlow)">
  <path d="M512 170 C615 225 700 238 830 250 C830 450 760 620 512 760 C264 620 194 450 194 250 C324 238 409 225 512 170 Z"
        fill="#ffffff" stroke="#17305A" stroke-width="18"/>
  <path d="M512 198 C592 238 659 250 772 260 C771 430 718 560 512 692 C306 560 253 430 252 260 C365 250 432 238 512 198 Z"
        fill="#17305A"/>
  <path d="M283 275 L485 250 L485 685 C365 605 305 503 283 275 Z" fill="url(#shieldBlue)"/>
  <path d="M512 246 L700 270 C680 486 624 592 512 685 C400 592 344 486 324 270 Z" fill="url(#shieldGreen)"/>
  <path d="M739 275 L539 250 L539 685 C659 605 717 503 739 275 Z" fill="url(#shieldOrange)"/>
  <path d="M485 245 L539 245 L539 689 L485 689 Z" fill="#17305A"/>
  <path d="M514 103 L537 148 L586 155 L551 190 L559 238 L514 215 L469 238 L477 190 L442 155 L491 148 Z" fill="#F5C243" stroke="#C88B00" stroke-width="6"/>
</g>

<!-- droplet -->
<path d="M382 454 C382 511 344 548 293 548 C242 548 204 511 204 454 C204 404 266 335 293 285 C320 335 382 404 382 454 Z"
      fill="#1D4F91" opacity="0.92"/>
<path d="M290 334 C260 389 238 415 238 456 C238 486 262 512 293 512 C310 512 327 503 338 489 C321 496 304 493 290 485 C266 472 257 449 262 427 C267 404 278 382 290 334 Z"
      fill="#9EEBFF" opacity="0.9"/>

<!-- apple -->
<g transform="translate(0,6)">
<path d="M536 403 C540 355 580 331 615 339 C645 346 664 372 668 400 C705 412 726 449 726 490 C726 549 688 594 635 594 C601 594 580 579 559 579 C536 579 517 594 484 594 C430 594 391 547 391 489 C391 443 416 406 454 398 C458 363 482 342 514 338 C535 336 553 343 566 355 C575 337 594 319 622 312 L625 330 C602 337 587 353 583 375 Z"
      fill="#F34D35" stroke="#17305A" stroke-width="10"/>
<path d="M556 358 C534 332 504 319 471 322 C493 286 528 271 559 279 C585 285 603 309 608 340 C590 337 572 343 556 358 Z" fill="#62B93E" stroke="#17305A" stroke-width="8"/>
<path d="M589 353 C610 327 642 317 674 322 C650 286 617 272 585 279 C562 284 545 302 537 329 C557 330 574 338 589 353 Z" fill="#3AA457" stroke="#17305A" stroke-width="8"/>
<path d="M574 314 C572 291 579 267 600 246" fill="none" stroke="#7C4E1A" stroke-width="10" stroke-linecap="round"/>
</g>

<!-- runner -->
<g fill="none" stroke="#ffffff" stroke-width="18" stroke-linecap="round" stroke-linejoin="round">
  <circle cx="702" cy="354" r="28" fill="#ffffff" stroke="#ffffff"/>
  <path d="M690 389 L651 454 L606 474"/>
  <path d="M688 395 L746 433 L793 425"/>
  <path d="M649 454 L667 534"/>
  <path d="M665 534 L617 589"/>
  <path d="M741 433 L748 514"/>
  <path d="M748 514 L811 557"/>
</g>

<!-- text -->
<path d="M124 770 H900 Q916 770 916 786 L916 900 Q916 916 900 916 H124 Q108 916 108 900 L108 786 Q108 770 124 770 Z" fill="#1A315D"/>
<text x="512" y="872" font-size="108" font-family="Arial Rounded MT Bold, Nunito, Trebuchet MS, Arial, sans-serif" text-anchor="middle" fill="#ffffff" font-weight="700">HEROHEALTH</text>
<text x="512" y="968" font-size="48" font-family="Arial Rounded MT Bold, Nunito, Trebuchet MS, Arial, sans-serif" text-anchor="middle" fill="#4BAEF2" font-weight="700">HYGIENE • NUTRITION • EXERCISE</text>

</svg>