<svg xmlns="http://www.w3.org/2000/svg" width="1024" height="1024" viewBox="0 0 1024 1024" role="img" aria-label="HeroHealth asset">


<rect x="76" y="86" width="872" height="852" rx="72" fill="#132D57"/>
<path d="M512 132 L535 177 L584 184 L549 219 L557 267 L512 244 L467 267 L475 219 L440 184 L489 177 Z" fill="#F5C243" stroke="#C88B00" stroke-width="6"/>
<text x="512" y="310" font-size="138" font-family="Arial Rounded MT Bold, Nunito, Trebuchet MS, Arial, sans-serif" text-anchor="middle" fill="#ffffff" font-weight="700">HEROHEALTH</text>
<text x="512" y="388" font-size="48" font-family="Arial Rounded MT Bold, Nunito, Trebuchet MS, Arial, sans-serif" text-anchor="middle" fill="#B9D8FF" font-weight="700">Choose Your Mission</text>

<g transform="translate(140 470)">
  <circle cx="120" cy="120" r="98" fill="#3BAEF5"/><rect x="83" y="70" width="20" height="150" rx="10" fill="#fff"/><rect x="97" y="60" width="96" height="36" rx="18" transform="rotate(28 97 60)" fill="#fff"/><text x="120" y="260" font-size="38" fill="#fff" text-anchor="middle" font-family="Arial Rounded MT Bold, Nunito, Arial">HYGIENE</text>
</g>
<g transform="translate(392 458)">
  <circle cx="120" cy="120" r="98" fill="#7EC94F"/><path d="M88 146 h104 q0 56 -52 56 q-52 0 -52 -56 z" fill="#fff"/><circle cx="132" cy="110" r="34" fill="#fff"/><rect x="164" y="86" width="16" height="84" rx="8" fill="#fff"/><text x="120" y="272" font-size="38" fill="#fff" text-anchor="middle" font-family="Arial Rounded MT Bold, Nunito, Arial">NUTRITION</text>
</g>
<g transform="translate(644 470)">
  <circle cx="120" cy="120" r="98" fill="#FFA62B"/><g fill="none" stroke="#fff" stroke-width="14" stroke-linecap="round" stroke-linejoin="round"><circle cx="135" cy="83" r="18" fill="#fff" stroke="#fff"/><path d="M126 106 L101 148 L72 162"/><path d="M126 109 L164 135 L196 130"/><path d="M101 148 L110 198"/><path d="M110 198 L80 230"/><path d="M164 135 L168 186"/><path d="M168 186 L209 214"/></g><text x="120" y="260" font-size="38" fill="#fff" text-anchor="middle" font-family="Arial Rounded MT Bold, Nunito, Arial">EXERCISE</text>
</g>

</svg>